<svg width="28" height="28" viewBox="0 0 28 28" fill="none" xmlns="http://www.w3.org/2000/svg">
<path d="M5.83331 7.00001C5.83331 5.76233 6.32498 4.57535 7.20015 3.70018C8.07532 2.82501 9.2623 2.33334 10.5 2.33334H17.5C18.7377 2.33334 19.9246 2.82501 20.7998 3.70018C21.675 4.57535 22.1666 5.76233 22.1666 7.00001V23.3333C22.1666 23.9522 21.9208 24.5457 21.4832 24.9833C21.0456 25.4208 20.4522 25.6667 19.8333 25.6667H8.16665C7.54781 25.6667 6.95432 25.4208 6.51673 24.9833C6.07915 24.5457 5.83331 23.9522 5.83331 23.3333V7.00001Z" stroke="currentColor" stroke-width="2" stroke-linecap="round" stroke-linejoin="round"/>
<path d="M5.83331 11.6667H22.1666" stroke="currentColor" stroke-width="2" stroke-linecap="round" stroke-linejoin="round"/>
<path d="M17.5 8.16666V15.1667" stroke="currentColor" stroke-width="2" stroke-linecap="round" stroke-linejoin="round"/>
</svg>
