<svg width="28" height="28" viewBox="0 0 28 28" fill="none" xmlns="http://www.w3.org/2000/svg">
<path d="M19.8333 24.5C20.1428 24.5 20.4395 24.3771 20.6583 24.1583C20.8771 23.9395 21 23.6428 21 23.3333V17.0917C21 16.5585 21.3687 16.107 21.8482 15.8772C22.841 15.4036 23.6346 14.5945 24.0889 13.5927C24.5432 12.5909 24.6291 11.4609 24.3313 10.402C24.0336 9.34304 23.3713 8.42334 22.4615 7.80517C21.5516 7.187 20.4526 6.9101 19.3585 7.02334C18.9079 5.97591 18.1602 5.08351 17.2078 4.45648C16.2555 3.82945 15.1402 3.49527 14 3.49527C12.8598 3.49527 11.7445 3.82945 10.7922 4.45648C9.83982 5.08351 9.09211 5.97591 8.6415 7.02334C7.54785 6.9109 6.44961 7.18819 5.54043 7.80633C4.63124 8.42447 3.96948 9.34376 3.67184 10.4021C3.37419 11.4605 3.45977 12.5899 3.91348 13.5914C4.36719 14.5928 5.15989 15.4019 6.15184 15.876C6.63134 16.107 7 16.5585 7 17.0905V23.3333C7 23.6428 7.12292 23.9395 7.34171 24.1583C7.56051 24.3771 7.85725 24.5 8.16667 24.5H19.8333Z" stroke="currentColor" stroke-width="2" stroke-linecap="round" stroke-linejoin="round"/>
<path d="M7 19.8333H21" stroke="currentColor" stroke-width="2" stroke-linecap="round" stroke-linejoin="round"/>
</svg>
