<svg width="28" height="28" viewBox="0 0 28 28" fill="none" xmlns="http://www.w3.org/2000/svg">
<path d="M11.2828 4.82534C11.3471 4.14907 11.6612 3.52106 12.1638 3.064C12.6663 2.60694 13.3213 2.35367 14.0006 2.35367C14.6799 2.35367 15.3348 2.60694 15.8374 3.064C16.3399 3.52106 16.654 4.14907 16.7183 4.82534C16.757 5.2622 16.9003 5.68333 17.1361 6.05307C17.372 6.42281 17.6935 6.73028 18.0734 6.94946C18.4532 7.16864 18.8803 7.29307 19.3185 7.31223C19.7566 7.33138 20.1929 7.2447 20.5905 7.0595C21.2078 6.77925 21.9073 6.73869 22.5528 6.94574C23.1984 7.15278 23.7438 7.59261 24.0829 8.17963C24.4221 8.76664 24.5307 9.45884 24.3876 10.1215C24.2445 10.7842 23.86 11.3699 23.3088 11.7647C22.9499 12.0165 22.657 12.351 22.4547 12.74C22.2525 13.129 22.1469 13.561 22.1469 13.9994C22.1469 14.4378 22.2525 14.8698 22.4547 15.2588C22.657 15.6478 22.9499 15.9823 23.3088 16.2342C23.86 16.629 24.2445 17.2147 24.3876 17.8773C24.5307 18.54 24.4221 19.2322 24.0829 19.8192C23.7438 20.4062 23.1984 20.8461 22.5528 21.0531C21.9073 21.2602 21.2078 21.2196 20.5905 20.9393C20.1929 20.7541 19.7566 20.6675 19.3185 20.6866C18.8803 20.7058 18.4532 20.8302 18.0734 21.0494C17.6935 21.2686 17.372 21.576 17.1361 21.9458C16.9003 22.3155 16.757 22.7366 16.7183 23.1735C16.654 23.8498 16.3399 24.4778 15.8374 24.9348C15.3348 25.3919 14.6799 25.6452 14.0006 25.6452C13.3213 25.6452 12.6663 25.3919 12.1638 24.9348C11.6612 24.4778 11.3471 23.8498 11.2828 23.1735C11.2443 22.7365 11.1009 22.3152 10.865 21.9453C10.6291 21.5755 10.3075 21.2679 9.92743 21.0487C9.5474 20.8295 9.12014 20.7051 8.68183 20.6861C8.24353 20.667 7.80709 20.7539 7.40949 20.9393C6.79219 21.2196 6.0927 21.2602 5.44716 21.0531C4.80161 20.8461 4.25619 20.4062 3.91705 19.8192C3.57792 19.2322 3.46932 18.54 3.61241 17.8773C3.7555 17.2147 4.14002 16.629 4.69116 16.2342C5.05005 15.9823 5.34301 15.6478 5.54526 15.2588C5.74751 14.8698 5.8531 14.4378 5.8531 13.9994C5.8531 13.561 5.74751 13.129 5.54526 12.74C5.34301 12.351 5.05005 12.0165 4.69116 11.7647C4.1408 11.3697 3.75695 10.7842 3.61421 10.122C3.47147 9.45977 3.58003 8.76813 3.9188 8.1815C4.25758 7.59487 4.80235 7.15514 5.44726 6.94778C6.09217 6.74043 6.79114 6.78024 7.40832 7.0595C7.80587 7.2447 8.24219 7.33138 8.68034 7.31223C9.11849 7.29307 9.54558 7.16864 9.92545 6.94946C10.3053 6.73028 10.6268 6.42281 10.8627 6.05307C11.0985 5.68333 11.2419 5.2622 11.2805 4.82534" stroke="currentColor" stroke-width="2" stroke-linecap="round" stroke-linejoin="round"/>
<path d="M14 17.5C15.933 17.5 17.5 15.933 17.5 14C17.5 12.067 15.933 10.5 14 10.5C12.067 10.5 10.5 12.067 10.5 14C10.5 15.933 12.067 17.5 14 17.5Z" stroke="currentColor" stroke-width="2" stroke-linecap="round" stroke-linejoin="round"/>
</svg>
