<svg width="28" height="28" viewBox="0 0 28 28" fill="none" xmlns="http://www.w3.org/2000/svg">
<path d="M24.5 14C25.144 14 25.6725 13.4762 25.6083 12.8357C25.3394 10.1572 24.1524 7.65415 22.2487 5.75087C20.345 3.8476 17.8417 2.66121 15.1632 2.39283C14.5215 2.32866 13.9988 2.85716 13.9988 3.50116V12.8345C13.9988 13.1439 14.1218 13.4407 14.3405 13.6595C14.5593 13.8782 14.8561 14.0012 15.1655 14.0012L24.5 14Z" stroke="black" stroke-width="2" stroke-linecap="round" stroke-linejoin="round"/>
<path d="M24.745 18.5383C24.0028 20.2936 22.8419 21.8403 21.3639 23.0432C19.8858 24.2461 18.1356 25.0687 16.2662 25.4389C14.3968 25.8092 12.4652 25.7158 10.6402 25.1671C8.81517 24.6184 7.15239 23.6309 5.79718 22.2911C4.44198 20.9513 3.43561 19.2999 2.86607 17.4813C2.29652 15.6627 2.18115 13.7322 2.53002 11.8587C2.8789 9.98524 3.6814 8.22573 4.86738 6.73403C6.05335 5.24234 7.58669 4.06387 9.33333 3.30167" stroke="black" stroke-width="2" stroke-linecap="round" stroke-linejoin="round"/>
</svg>
